# File created by Blade
# Date/Time:  Wed Jan 21 19:08:52 2015
# Frame Rate: 120.000 fps
#------------------------------------------------------
:FULLY-SPECIFIED
:DEGREES
2891
root -6.917789 31.983952 -6.212021 55.174608 19.797285 -2.801689
RightUpLeg -58.056849 1.309874 9.839895
RightLeg -6.190101 -0.000000 0.000000
RightFoot -5.112608 -12.865964 14.483299
RightToeBase 24.077760 -0.000000 -0.000000
LeftUpLeg -46.667479 -11.793713 -2.678321
LeftLeg -1.914581 -0.000000 0.000000
LeftFoot -7.100864 -13.831910 -2.042186
LeftToeBase 14.162007 -0.000000 -0.000000
Spine -42.219582 22.075774 32.684691
RightShoulder -11.088616 17.088145 -4.337001
RightArm -6.838413 -12.691099 72.119130
RightForeArm 18.408754 -0.000000 -1.867364
RightHand 19.942307 -0.000000 -11.439532
RightHandThumb1 -24.326973 -0.000000 -32.862282
LeftShoulder -18.599768 -16.444141 69.390676
LeftArm 26.276112 -32.663397 7.361305
LeftForeArm 6.693389 -0.000000 8.455478
LeftHand -23.362476 -0.000000 21.342431
LeftHandThumb1 -26.253704 0.000000 33.147579
Head -19.335565 -15.864964 56.123913
2892
root -6.905653 31.982040 -6.221269 55.201182 19.774419 -2.806774
RightUpLeg -58.090392 1.290989 9.847166
RightLeg -6.206347 -0.000000 0.000000
RightFoot -5.089162 -12.833045 14.474356
RightToeBase 24.098076 -0.000000 -0.000000
LeftUpLeg -46.699168 -11.810501 -2.683538
LeftLeg -1.929140 -0.000000 0.000000
LeftFoot -7.071426 -13.832995 -2.057994
LeftToeBase 14.225745 -0.000000 -0.000000
Spine -42.201474 22.096367 32.721245
RightShoulder -11.067719 17.065355 -4.296215
RightArm -6.786277 -12.710498 72.082870
RightForeArm 18.467297 -0.000000 -1.865362
RightHand 19.963450 -0.000000 -11.495066
RightHandThumb1 -24.326973 -0.000000 -32.862282
LeftShoulder -18.589091 -16.437718 69.405072
LeftArm 26.274741 -32.749958 7.368435
LeftForeArm 6.722808 -0.000000 8.473865
LeftHand -23.422219 -0.000000 21.337973
LeftHandThumb1 -26.253704 0.000000 33.147579
Head -19.345692 -15.845933 56.184493
2893
root -6.894454 31.980772 -6.233231 55.234993 19.744727 -2.803796
RightUpLeg -58.155442 1.275261 9.845405
RightLeg -6.174824 -0.000000 0.000000
RightFoot -5.065460 -12.832062 14.361116
RightToeBase 24.060478 -0.000000 -0.000000
LeftUpLeg -46.744351 -11.825314 -2.704387
LeftLeg -1.930810 -0.000000 0.000000
LeftFoot -7.040318 -13.833476 -2.061225
LeftToeBase 14.176872 -0.000000 -0.000000
Spine -42.179928 22.119030 32.744776
RightShoulder -11.052419 17.029885 -4.254546
RightArm -6.710443 -12.779633 72.050363
RightForeArm 18.512842 0.000000 -1.893404
RightHand 20.106679 -0.000000 -11.578107
RightHandThumb1 -24.326973 -0.000000 -32.862282
LeftShoulder -18.592346 -16.445861 69.424734
LeftArm 26.221923 -32.619652 7.514037
LeftForeArm 6.438249 0.000000 8.460935
LeftHand -23.460601 -0.000000 21.266570
LeftHandThumb1 -26.253704 0.000000 33.147579
Head -19.357473 -15.799382 56.262235
2894
root -6.882507 31.979239 -6.242533 55.244315 19.717600 -2.811617
RightUpLeg -58.182683 1.272507 9.835427
RightLeg -6.171234 -0.000000 0.000000
RightFoot -5.022895 -12.847875 14.285651
RightToeBase 24.009726 -0.000000 -0.000000
LeftUpLeg -46.766209 -11.810391 -2.742437
LeftLeg -1.917873 -0.000000 0.000000
LeftFoot -7.032193 -13.876653 -2.062828
LeftToeBase 14.211820 -0.000000 -0.000000
Spine -42.144495 22.142620 32.784294
RightShoulder -11.035676 16.970617 -4.208839
RightArm -6.618321 -12.752573 71.984854
RightForeArm 18.356139 -0.000000 -1.884702
RightHand 19.974847 0.000000 -11.491810
RightHandThumb1 -24.326973 -0.000000 -32.862282
LeftShoulder -18.582551 -16.411107 69.384639
LeftArm 26.296630 -32.944610 7.407474
LeftForeArm 6.598596 -0.000000 8.550901
LeftHand -23.377325 -0.000000 21.402888
LeftHandThumb1 -26.253704 0.000000 33.147579
Head -19.365781 -15.766994 56.313621
2895
root -6.869666 31.977128 -6.253834 55.265285 19.689395 -2.818620
RightUpLeg -58.222507 1.275014 9.806061
RightLeg -6.171101 -0.000000 0.000000
RightFoot -5.098916 -12.840965 14.416541
RightToeBase 24.207765 -0.000000 -0.000000
LeftUpLeg -46.807443 -11.855481 -2.727111
LeftLeg -1.925302 -0.000000 0.000000
LeftFoot -7.008204 -13.810671 -2.073520
LeftToeBase 14.239579 -0.000000 -0.000000
Spine -42.108909 22.163992 32.833011
RightShoulder -11.022826 16.965107 -4.193116
RightArm -6.569451 -12.740642 71.964045
RightForeArm 18.316082 -0.000000 -1.898027
RightHand 19.850667 -0.000000 -11.428329
RightHandThumb1 -24.326973 -0.000000 -32.862282
LeftShoulder -18.579664 -16.375123 69.369613
LeftArm 26.302644 -33.072011 7.398079
LeftForeArm 6.596130 -0.000000 8.632536
LeftHand -23.466883 -0.000000 21.346308
LeftHandThumb1 -26.253704 0.000000 33.147579
Head -19.370076 -15.710522 56.342675
